HIERARCHY
ROOT Hips
{
  OFFSET 36.1108 12.0145 38.273
  CHANNELS 6 Xposition Yposition Zposition Zrotation Xrotation Yrotation
  JOINT ToSpine
  {
    OFFSET -0.0105055 1.38907 -7.13956
    CHANNELS 3 Zrotation Xrotation Yrotation
    JOINT Spine
    {
      OFFSET 0.0105055 10 1
      CHANNELS 3 Zrotation Xrotation Yrotation
      JOINT Spine1
      {
        OFFSET 0 12 1.60637
        CHANNELS 3 Zrotation Xrotation Yrotation
        JOINT Neck
        {
          OFFSET 0 27 2.26658
          CHANNELS 3 Zrotation Xrotation Yrotation
          JOINT Head
          {
            OFFSET 0 9 2.12705
            CHANNELS 3 Zrotation Xrotation Yrotation
            End Site
            {
              OFFSET 0 11 2
            }
          }
        }
        JOINT LeftShoulder
        {
          OFFSET 8 19.6109 2.86452
          CHANNELS 3 Zrotation Xrotation Yrotation
          JOINT LeftArm
          {
            OFFSET 12 1 0.681055
            CHANNELS 3 Zrotation Xrotation Yrotation
            JOINT LeftForeArm
            {
              OFFSET 19 0 -1.52608
              CHANNELS 3 Zrotation Xrotation Yrotation
              JOINT LeftHand
              {
                OFFSET 23 0 0
                CHANNELS 3 Zrotation Xrotation Yrotation
                End Site
                {
                  OFFSET 10 0 0
                }
              }
            }
          }
        }
        JOINT RightShoulder
        {
          OFFSET -8 19.6109 2.86452
          CHANNELS 3 Zrotation Xrotation Yrotation
          JOINT RightArm
          {
            OFFSET -12 1 0.681055
            CHANNELS 3 Zrotation Xrotation Yrotation
            JOINT RightForeArm
            {
              OFFSET -19 0 -1.52608
              CHANNELS 3 Zrotation Xrotation Yrotation
              JOINT RightHand
              {
                OFFSET -23 0 0
                CHANNELS 3 Zrotation Xrotation Yrotation
                End Site
                {
                  OFFSET -10 0 0
                }
              }
            }
          }
        }
      }
    }
  }
  JOINT LeftUpLeg
  {
    OFFSET 9 -7.17245 0
    CHANNELS 3 Zrotation Xrotation Yrotation
    JOINT LeftLeg
    {
      OFFSET 0 -44.1113 0
      CHANNELS 3 Zrotation Xrotation Yrotation
      JOINT LeftFoot
      {
        OFFSET 0 -36.1829 0
        CHANNELS 3 Zrotation Xrotation Yrotation
        JOINT LeftToeBase
        {
          OFFSET 0 -4.84184 13
          CHANNELS 3 Zrotation Xrotation Yrotation
          End Site
          {
            OFFSET 0 1 6
          }
        }
      }
    }
  }
  JOINT RightUpLeg
  {
    OFFSET -9 -7.17245 0
    CHANNELS 3 Zrotation Xrotation Yrotation
    JOINT RightLeg
    {
      OFFSET 0 -44.0551 0
      CHANNELS 3 Zrotation Xrotation Yrotation
      JOINT RightFoot
      {
        OFFSET 0 -36.1469 0
        CHANNELS 3 Zrotation Xrotation Yrotation
        JOINT RightToeBase
        {
          OFFSET 0 -4.92256 13
          CHANNELS 3 Zrotation Xrotation Yrotation
          End Site
          {
            OFFSET 0 1 6
          }
        }
      }
    }
  }
}
MOTION
Frames:	17
Frame Time:	0.0333333
36.0776 12.1356 40.0432 3.12809 79.3781 2.25106 0 0 0 9.47346 -2.07172 1.39875 -9.14341 2.79949 2.69958 9.46041 -31.0077 3.30489 -7.06353 -0.271873 4.70528 17.8714 -0.520888 -3.74081 -40.8409 -37.3272 -77.7611 25.6588 0.153069 -89.6813 -4.32224 0.277137 -7.33386 -32.354 -0.679047 -0.119812 26.6832 -45.4802 29.2484 -12.2821 -3.75924 106.76 2.7834 -0.120609 -4.9626 6.83432 8.33339 9.69765 -0.862147 16.4048 -3.95612 11.4513 -6.02707 0.604488 1.02554 -2.90381 -3.89594 -5.24321 8.70282 -12.204 2.23296 18.1745 9.42009 -8.79428 10.0626 0.77573 5.99555 -23.7308 -5.42769 
36.0424 12.2405 39.9762 2.69834 79.1611 2.62409 0 0 0 9.47785 -1.56424 1.35406 -9.19726 2.99621 2.74369 9.26644 -31.1461 3.08638 -6.61403 -0.781014 4.36574 17.7341 -0.494819 -3.49906 -40.304 -38.0509 -78.1777 25.2804 0.0788376 -89.8333 -4.02593 0.239869 -6.81597 -33.0972 -0.642421 -0.407329 27.4937 -45.6509 28.9776 -12.3917 -3.94709 107.396 2.57751 -0.11661 -5.18017 6.95418 8.53671 9.84844 -0.908198 16.6088 -3.46883 11.5671 -7.13167 0.723186 1.07495 -2.69179 -4.15603 -5.36032 8.54249 -11.8242 1.80404 18.7231 11.0303 -8.72655 9.85927 0.754058 5.9884 -23.6105 -5.1998 
35.9954 12.3546 39.9154 2.36211 78.9077 2.91842 0 0 0 9.4686 -0.943336 1.27301 -9.33562 3.06133 2.76089 9.32344 -31.4194 2.94962 -6.29925 -1.11898 4.13114 17.9497 -0.49483 -3.3143 -40.0067 -38.7454 -78.4095 24.9659 1.48075e-015 -90 -3.73099 0.205046 -6.28985 -33.5463 -0.638043 -0.488299 27.918 -45.8851 28.4719 -12.5254 -4.1373 107.991 2.40959 -0.113899 -5.41111 7.15307 8.6643 10.0283 -0.972347 16.913 -3.54116 11.4902 -7.67694 0.773394 1.07438 -2.76337 -4.14376 -5.47291 8.47079 -11.402 1.43451 19.1433 12.5333 -8.97726 9.70659 0.763943 5.99124 -23.5492 -5.01728 
35.9331 12.4758 39.8722 2.20745 78.5842 3.08144 0 0 0 9.45492 -0.33319 1.19219 -9.59565 3.13317 2.7968 9.81475 -31.4381 2.78357 -6.41264 -1.61705 3.98494 17.785 -0.501392 -3.54761 -39.116 -39.621 -78.443 24.7042 1.46621e-015 -90 -3.48998 0.176794 -5.79853 -33.6723 -0.721873 -0.110726 27.4959 -46.2781 27.1642 -12.2313 -4.16336 108.516 2.17574 -0.104098 -5.4776 7.39813 8.76048 10.1776 -0.984547 17.2625 -4.21379 11.0237 -7.68091 0.742305 1.04878 -3.12952 -3.96917 -5.57833 8.53159 -10.9364 1.05857 19.4541 13.7146 -8.77361 9.34016 0.718034 5.91338 -22.9621 -4.29973 
35.8448 12.5988 39.8211 2.39323 78.2743 2.92256 0 0 0 9.36945 -0.223399 1.1552 -9.89607 3.97199 2.87772 10.0097 -31.885 2.65955 -6.21012 -2.13541 3.75945 17.4316 -0.489339 -3.68994 -38.1783 -40.7542 -78.7904 24.3984 0.10221 -89.7744 -3.26825 0.151923 -5.32111 -33.9241 -0.793577 0.186932 27.2592 -46.9245 25.9452 -12.1028 -4.23855 109.018 1.9964 -0.0965993 -5.54246 7.66281 8.68352 10.3053 -0.975446 17.7622 -5.43147 10.3889 -7.05718 0.64253 1.0404 -3.61485 -3.85454 -5.68842 8.66142 -10.5068 0.775497 19.6097 14.6575 -8.94654 9.27071 0.726989 5.93667 -22.7617 -3.44963 
35.7535 12.7134 39.7785 2.77517 77.9826 2.58484 0 0 0 9.40329 0.62141 0.959376 -10.5587 3.71226 2.82961 10.7042 -32.2758 2.67518 -6.25811 -2.4326 3.72975 17.7576 -0.506273 -3.63681 -37.62 -41.6491 -78.8466 23.9464 0.180116 -89.5944 -3.073 0.130392 -4.85901 -33.9142 -0.856582 0.480881 27.2266 -47.334 25.0845 -12.1499 -4.37881 109.526 1.93063 -0.0955229 -5.63016 7.95583 8.46761 10.3722 -0.959957 18.2699 -7.39063 9.61438 -5.51902 0.465153 0.979957 -4.38632 -3.42786 -5.80266 8.84607 -10.1858 0.602305 19.6399 15.3395 -9.39104 9.40059 0.773816 6.00228 -22.8141 -2.85211 
35.6654 12.817 39.7522 3.23007 77.6764 2.19229 0 0 0 9.27098 1.44649 0.881553 -10.9299 3.47539 2.84168 11.1596 -32.7623 2.57528 -6.44152 -2.6338 3.61055 17.801 -0.530581 -3.94056 -36.93 -42.6205 -78.882 23.5129 0.308741 -89.2904 -2.96561 0.114705 -4.42989 -34.0336 -0.873661 0.54059 27.2182 -47.6288 24.2463 -11.9049 -4.41288 110.05 1.77753 -0.0895676 -5.63133 8.28446 8.17534 10.3557 -0.903873 18.7514 -9.97622 8.55596 -3.38327 0.253419 0.923133 -5.39519 -2.93872 -5.89693 9.09319 -9.94183 0.449241 19.6112 15.6437 -9.18606 9.32749 0.750954 5.96424 -22.451 -2.17199 
35.5763 12.9028 39.7137 3.82384 77.3946 1.63323 0 0 0 9.1607 2.25883 0.781504 -11.3602 3.31379 2.83779 11.3637 -33.8119 2.58078 -6.35979 -2.52532 3.477 17.6457 -0.521022 -3.94866 -36.1989 -43.7043 -79.1431 22.86 0.425911 -88.9899 -2.92246 0.102183 -4.00423 -34.3848 -0.776233 0.036311 28.2802 -47.8519 24.4493 -11.8341 -4.50692 110.557 1.78535 -0.0847304 -5.5721 8.62081 7.78563 10.3009 -0.829512 19.3132 -12.8539 7.29089 -1.17494 0.0752151 0.83626 -6.09892 -2.32154 -5.98615 9.36451 -9.833 0.378405 19.5183 15.7377 -9.00379 9.44143 0.74515 5.98699 -22.3965 -1.7217 
35.5151 12.9675 39.6681 4.4255 77.1889 1.07424 0 0 0 9.09447 3.34334 0.622481 -11.8575 2.63261 2.76427 11.865 -34.8445 2.65513 -6.45375 -2.31115 3.4365 17.9483 -0.545857 -4.01669 -35.5935 -44.8653 -78.9985 21.9435 0.525264 -88.6965 -2.89872 0.0912014 -3.60348 -34.5172 -0.599069 -0.786911 29.612 -47.9064 25.2667 -11.9304 -4.66904 111.07 1.90489 -0.0818997 -5.52122 8.95413 7.34038 10.1733 -0.742307 19.7543 -16.0415 5.90875 1.22741 -0.062859 0.726891 -6.68366 -1.57186 -6.05936 9.60418 -9.89533 0.414467 19.3828 15.6381 -9.20683 9.79423 0.790497 6.09518 -22.7881 -1.69829 
35.4839 13.0055 39.627 4.91494 77.0418 0.568713 0 0 0 9.14877 3.81403 0.532239 -12.3672 2.8306 2.81046 12.1582 -36.2513 2.7486 -6.47201 -2.00494 3.35003 18.2743 -0.567816 -4.02185 -35.2188 -46.2857 -79.0467 20.9627 0.599961 -88.4344 -2.92014 0.0820555 -3.21929 -34.8369 -0.331651 -2.01394 31.4332 -47.957 26.6303 -11.7181 -4.70663 111.583 1.77367 -0.0803121 -5.49472 9.2809 6.93012 9.98366 -0.642748 20.0053 -19.4343 4.48939 3.5956 -0.141249 0.670329 -6.9886 -1.16684 -6.10012 9.78689 -10.0212 0.462276 19.2597 15.3083 -9.10357 10.0187 0.799609 6.15389 -23.0411 -1.80903 
35.4731 13.0232 39.5885 5.33882 76.9223 0.051414 0 0 0 9.13912 4.15063 0.509771 -12.6267 3.34198 2.90366 11.9106 -38.0826 2.83085 -6.15767 -1.49575 3.15314 18.0635 -0.513317 -3.4738 -35.08 -47.6286 -79.8836 19.937 0.636021 -88.2471 -2.99656 0.0742406 -2.83776 -35.3896 0.130573 -4.07686 34.3752 -47.765 29.2793 -11.5141 -4.73553 112.061 1.69259 -0.0804084 -5.42245 9.57239 6.57583 9.77618 -0.49525 20.235 -22.5692 2.96954 5.17336 -0.134758 0.557262 -6.57977 -0.679026 -6.11746 9.94307 -10.1769 0.508263 19.1566 14.824 -8.74662 10.099 0.774339 6.15384 -23.1414 -2.11201 
35.497 13.0307 39.5445 5.65685 76.8761 -0.353803 0 0 0 9.21631 4.31094 0.455121 -12.9521 4.02004 2.99353 12.0887 -39.7016 2.98317 -6.06568 -1.14537 3.05921 18.1679 -0.478999 -2.92938 -35.0741 -49.1499 -80.4982 18.7576 0.633021 -88.1367 -3.06106 0.0660659 -2.47187 -35.5559 0.640666 -6.29033 37.1947 -47.6294 32.2146 -11.6033 -4.87011 112.463 1.77947 -0.0827051 -5.283 9.82826 6.27133 9.56998 -0.34099 20.3369 -25.2692 1.63061 6.29001 -0.0897253 0.449386 -6.36489 -0.170171 -6.11601 10.0417 -10.4667 0.637718 19.0735 14.2623 -8.8457 10.28 0.797364 6.20364 -23.5121 -2.64106 
35.5472 13.0163 39.5061 5.86132 76.9085 -0.708821 0 0 0 9.27851 4.38692 0.430417 -13.1293 4.63264 3.08123 12.231 -40.6138 3.06648 -6.05022 -1.23309 2.98946 18.3909 -0.473351 -2.6861 -34.8634 -50.7802 -80.3986 17.5182 0.549989 -88.2582 -3.13381 0.0577731 -2.11233 -35.6461 1.13448 -8.4153 39.7404 -47.2763 35.0981 -11.4307 -4.88748 112.849 1.69923 -0.0831436 -5.23979 10.0326 6.04342 9.35745 -0.198373 20.2882 -27.6225 0.620145 7.1926 -0.039467 0.476497 -6.27987 -0.346383 -6.10174 10.048 -10.8034 0.796882 19.0248 13.6328 -9.11443 10.4506 0.835245 6.26291 -23.8859 -3.04059 
35.6065 12.9894 39.4908 5.93425 76.9641 -1.00874 0 0 0 9.34294 4.29265 0.453214 -13.216 5.48793 3.21269 12.2162 -41.1783 3.10247 -5.96154 -1.62898 2.90448 17.9068 -0.390813 -1.90917 -34.7959 -52.0724 -81.1797 16.4844 0.456183 -88.4588 -3.26427 0.0506502 -1.77755 -35.6372 1.65524 -10.6731 42.3303 -46.8292 38.2099 -11.2072 -4.86207 113.16 1.62672 -0.0829982 -5.1693 10.2004 5.88556 9.1758 -0.039921 20.2502 -29.5481 -0.27173 7.37102 0.017249 0.438963 -5.40828 -0.434705 -6.05066 10.0228 -11.0497 0.899193 18.9895 12.8475 -8.98522 10.3865 0.818308 6.21056 -23.7949 -3.34017 
35.6809 12.9648 39.479 5.91687 77.0494 -1.21602 0 0 0 9.45865 4.06463 0.459823 -13.3512 6.47902 3.3473 12.5696 -41.2987 3.18568 -6.10228 -2.30503 2.92331 17.6047 -0.310988 -0.978367 -35.0676 -53.2502 -82.1151 15.5317 0.354712 -88.7239 -3.39403 0.0434703 -1.46676 -35.3209 2.11854 -12.7846 44.5855 -46.5785 41.1643 -11.3679 -4.98505 113.374 1.81794 -0.0829375 -4.96993 10.3193 5.78314 9.04788 0.069376 20.1521 -30.8817 -0.762026 7.3759 0.049182 0.372579 -4.93661 -0.25017 -5.99409 9.96589 -11.3656 1.04756 18.9841 12.0718 -9.14769 10.3432 0.829701 6.1669 -23.7688 -3.7268 
35.7595 12.9321 39.4785 5.86243 77.1892 -1.37949 0 0 0 9.49897 3.74412 0.460529 -13.3147 7.46824 3.42851 12.6622 -41.083 3.20783 -6.08739 -3.07406 2.92232 17.5764 -0.250354 -0.106516 -35.525 -54.3624 -82.6263 14.6447 0.19698 -89.2459 -3.51505 0.0355714 -1.15968 -35.0349 2.53139 -14.7135 46.6863 -46.2511 44.0359 -11.4819 -5.07442 113.531 1.97655 -0.0835106 -4.86003 10.3626 5.69925 8.93685 0.150293 19.9986 -31.6327 -0.992201 7.51896 0.0651173 0.476084 -5.03275 -0.746843 -5.9381 9.85211 -11.7381 1.23691 18.9828 11.3446 -9.50749 10.3482 0.862879 6.14996 -23.8083 -4.00585 
35.8309 12.8919 39.5033 5.74152 77.3402 -1.47823 0 0 0 9.56454 3.35552 0.483889 -13.3187 8.42438 3.5294 12.7859 -40.3402 3.1709 -6.10678 -4.19028 2.93221 17.1107 -0.166344 0.94906 -36.0911 -55.0061 -83.7258 14.129 0.0720854 -89.7149 -3.69977 0.0292527 -0.905467 -34.6506 2.83568 -16.2485 48.2707 -46.0423 46.3415 -11.4872 -5.10604 113.651 2.07264 -0.0861309 -4.76157 10.3764 5.64184 8.89054 0.191513 19.8847 -32.0136 -1.20085 7.36268 0.0773028 0.516802 -4.48001 -1.10873 -5.84705 9.73516 -12.0127 1.37566 18.9507 10.4796 -9.49644 10.2905 0.857046 6.08802 -23.5867 -4.07659 
